<?xml version="1.0" encoding="utf-8"?>
<!-- Generator: Adobe Illustrator 16.0.0, SVG Export Plug-In . SVG Version: 6.00 Build 0)  -->
<!DOCTYPE svg PUBLIC "-//W3C//DTD SVG 1.1//EN" "http://www.w3.org/Graphics/SVG/1.1/DTD/svg11.dtd">
<svg version="1.1" id="Layer_1" xmlns="http://www.w3.org/2000/svg" xmlns:xlink="http://www.w3.org/1999/xlink" x="0px" y="0px"
	 width="62.812px" height="38.875px" viewBox="20.001 30.895 62.812 38.875" enable-background="new 20.001 30.895 62.812 38.875"
	 xml:space="preserve">
<g id="Captions">
</g>
<g id="Your_Icon">
	<path fill="#C0802D" d="M35.63,49.36l-0.041-0.041c-0.495-0.484-1.151-0.75-1.848-0.75c-0.72,0-1.392,0.281-1.891,0.792
		l-4.368,4.433c-1.018,1.042-0.999,2.72,0.044,3.737l0.042,0.041c0.495,0.484,1.15,0.75,1.848,0.75c0.72,0,1.391-0.281,1.89-0.792
		l4.368-4.435C36.691,52.057,36.673,50.379,35.63,49.36z"/>
	<path fill="#C0802D" d="M40.997,53.314l-0.042-0.041c-0.495-0.483-1.15-0.75-1.847-0.75c-0.721,0-1.392,0.281-1.892,0.791
		L32.85,57.75c-1.018,1.041-0.999,2.718,0.043,3.736l0.042,0.041c0.495,0.483,1.151,0.75,1.848,0.75c0.72,0,1.392-0.28,1.891-0.791
		l4.367-4.436C42.059,56.01,42.039,54.333,40.997,53.314z"/>
	<path fill="#C0802D" d="M46.71,56.799l-0.043-0.042c-0.494-0.483-1.15-0.749-1.848-0.749c-0.72,0-1.391,0.281-1.89,0.792
		l-4.368,4.435c-1.018,1.041-0.999,2.719,0.044,3.736l0.042,0.041c0.494,0.483,1.15,0.75,1.848,0.75c0.72,0,1.391-0.281,1.891-0.792
		l4.367-4.435C47.771,59.494,47.751,57.816,46.71,56.799z"/>
	<path fill="#C0802D" d="M52.076,60.598l-0.043-0.043c-0.494-0.482-1.149-0.748-1.847-0.748c-0.72,0-1.391,0.28-1.891,0.791
		l-4.367,4.435c-1.019,1.041-0.999,2.718,0.043,3.737l0.043,0.041c0.494,0.482,1.15,0.75,1.847,0.75c0.72,0,1.392-0.281,1.891-0.793
		l4.367-4.435C53.139,63.292,53.118,61.615,52.076,60.598z"/>
	<path fill="#E79D2D" d="M56.77,41.309c-4.627,4.377-8.208,6.013-8.359,6.082l-0.03,0.011c-0.689,0.219-1.511,0.334-2.376,0.334
		c-1.098,0-2.005-0.181-2.449-0.336c-0.896-0.313-2.424-1.788-3.084-2.976c-0.68-1.224-0.089-3.077-0.062-3.155L40.43,41.2
		l10.153-9.575c-0.486-0.485-1.451-0.73-2.873-0.73c-3.878,0-9.748,1.875-10.077,1.981c-0.442,0.196-1.083,0.296-1.905,0.296
		c-1.469,0-3.063-0.309-3.318-0.36c-0.003,0-0.005,0-0.008,0c-0.861,0-3.117-1.354-3.48-1.576c-0.369-0.13-0.719-0.197-1.038-0.197
		c-0.868,0-1.277,0.484-1.353,0.583l-4.894,11.166c-1.536,2.89-1.648,3.731-1.635,3.946c2.687,0.653,6.249,4.512,7.134,5.509
		l5.094-4.977l0.081-0.017c0.433-0.091,0.851-0.138,1.242-0.138c3.132,0,4.009,2.891,4.208,3.81
		c0.257-0.024,0.508-0.038,0.748-0.038c3.707,0,4.479,2.969,4.634,3.981c0.517-0.104,1.007-0.156,1.463-0.156
		c3.399,0,4.182,2.854,4.349,3.813c1.788-0.271,3.164,0.113,4.086,1.129c1.467,1.61,1.238,4.221,1.229,4.33l-0.01,0.102
		l-5.043,5.123c0.704,0.375,1.374,0.564,1.996,0.564c2.496,0,3.582-3.072,3.594-3.104l0.078-0.229l0.239,0.043
		c0.417,0.074,0.813,0.112,1.181,0.112c3.37,0,3.543-3.183,3.549-3.317l0.016-0.352l0.341,0.088c0.677,0.176,1.31,0.264,1.88,0.264
		c3.512,0,3.862-3.307,3.875-3.446l0.029-0.31l0.306,0.057c0.521,0.098,1.007,0.146,1.446,0.146c1.174,0,2.055-0.35,2.617-1.037
		c1.084-1.324,0.693-3.498,0.671-3.623C70.113,51.398,58.415,42.541,56.77,41.309z"/>
	<path fill="#C0802D" d="M76.54,32.514l-0.007-0.034c-0.287-1.394-1.139-1.602-1.619-1.602c-0.051,0-0.092,0.002-0.123,0.005
		c-2.578,2.01-5.393,2.312-6.846,2.312c-0.557,0-0.905-0.044-0.959-0.051c-2.577-0.252-5.764-1.348-5.897-1.395l-0.032-0.013
		c-1.965-0.96-3.646-1.447-5.002-1.447c-1.361,0-1.881,0.512-1.886,0.518C48.345,37.051,42.921,41.18,42.3,41.646
		c-0.984,2.179,1.586,3.973,1.923,4.196c0.702,0.171,1.36,0.257,1.957,0.257c0.988,0,1.469-0.242,1.474-0.244l0.065-0.034
		l0.095,0.002c1.521,0,6.993-4.57,8.974-6.331l0.144-0.127l0.172,0.084c6.594,3.236,14.938,12.935,15.41,13.488
		c0.461,0.351,0.891,0.526,1.275,0.526c0.447,0,0.682-0.245,0.691-0.255l0.027-0.027l6.741-5.63l0.047-0.017
		c0.75-0.276,1.229-0.659,1.422-1.136c0.22-0.542-0.008-1.042-0.011-1.047L76.54,32.514z"/>
</g>
</svg>
