<?xml version="1.0" encoding="utf-8"?>
<!-- Generator: Adobe Illustrator 16.0.0, SVG Export Plug-In . SVG Version: 6.00 Build 0)  -->
<!DOCTYPE svg PUBLIC "-//W3C//DTD SVG 1.1//EN" "http://www.w3.org/Graphics/SVG/1.1/DTD/svg11.dtd">
<svg version="1.1" id="Layer_1" xmlns="http://www.w3.org/2000/svg" xmlns:xlink="http://www.w3.org/1999/xlink" x="0px" y="0px"
	 width="79.611px" height="100px" viewBox="0 0 79.611 100" enable-background="new 0 0 79.611 100" xml:space="preserve">
<g>
	<path fill="#010101" d="M39.806,100c0-0.011,0.047-0.027,0-0.039C39.759,99.973,39.806,99.99,39.806,100z"/>
	<path fill="#2387C9" d="M39.81,0L0,10.257c0,0,0,8.951,0,27.287c0,36.399,26.538,59.218,39.806,62.379
		c13.27-3.161,39.806-25.979,39.806-62.379c0-18.337,0-27.287,0-27.287L39.81,0z M51.757,48.55l5.891,19.494l-1.448,0.99
		L39.529,57.428L22.614,69.207l-1.292-0.891l5.985-19.767L10.556,35.854l0.292-1.243l21.127-0.202l6.724-19.125h1.661l6.726,19.125
		l21.045,0.312l0.517,1.081L51.757,48.55z"/>
</g>
</svg>
